<svg width="24" height="24" viewBox="0 0 24 24" fill="none" xmlns="http://www.w3.org/2000/svg">
<path fill-rule="evenodd" clip-rule="evenodd" d="M17.0136 21.9998H8.66579C5.59943 21.9998 3.24703 20.8922 3.91522 16.4346L4.69325 10.3934C5.10515 8.16913 6.52392 7.31787 7.76877 7.31787H17.9473C19.2104 7.31787 20.5468 8.2332 21.0228 10.3934L21.8008 16.4346C22.3683 20.3888 20.08 21.9998 17.0136 21.9998Z" stroke="white" stroke-width="1.5" stroke-linecap="round" stroke-linejoin="round"/>
<path d="M17.151 7.09824C17.151 4.71216 15.2167 2.77787 12.8306 2.77787V2.77787C11.6816 2.773 10.578 3.22603 9.76381 4.03679C8.94963 4.84754 8.49193 5.94923 8.49194 7.09824V7.09824" stroke="white" stroke-width="1.5" stroke-linecap="round" stroke-linejoin="round"/>
<path d="M15.7962 11.6017H15.7505" stroke="white" stroke-width="1.5" stroke-linecap="round" stroke-linejoin="round"/>
<path d="M9.96566 11.6017H9.91989" stroke="white" stroke-width="1.5" stroke-linecap="round" stroke-linejoin="round"/>
</svg>
