<svg width="18" height="20" viewBox="0 0 18 20" fill="none" xmlns="http://www.w3.org/2000/svg">
<path fill-rule="evenodd" clip-rule="evenodd" d="M10.9756 0.000488281C11.0185 0.000488281 11.0606 0.00410441 11.1016 0.0110486L11.2385 0.0118883C11.4425 0.0118883 11.6375 0.0948883 11.7795 0.241888L16.8445 5.51889C16.9785 5.65789 17.0536 5.84489 17.0536 6.03789V15.2039C17.0715 17.7129 15.1175 19.7629 12.6045 19.8649L4.58546 19.8659H4.47646C2.02652 19.8105 0.0616273 17.8291 0.00176667 15.4031L0.00146484 4.49089C0.0594648 2.00989 2.10846 0.0118883 4.57147 0.0118883L10.8495 0.0110486C10.8905 0.00410441 10.9326 0.000488281 10.9756 0.000488281ZM10.2255 1.51149L4.57346 1.51189C2.91646 1.51189 1.54046 2.85389 1.50146 4.50889V15.2039C1.46446 16.9169 2.81446 18.3279 4.51046 18.3659H12.5745C14.2435 18.2969 15.5655 16.9099 15.5535 15.2099L15.5535 6.98349L13.5436 6.98449C11.7136 6.97949 10.2256 5.48749 10.2256 3.65949L10.2255 1.51149ZM10.7888 12.6086C11.2028 12.6086 11.5388 12.9446 11.5388 13.3586C11.5388 13.7726 11.2028 14.1086 10.7888 14.1086H5.38876C4.97476 14.1086 4.63876 13.7726 4.63876 13.3586C4.63876 12.9446 4.97476 12.6086 5.38876 12.6086H10.7888ZM8.74387 8.85659C9.15787 8.85659 9.49387 9.19259 9.49387 9.60659C9.49387 10.0206 9.15787 10.3566 8.74387 10.3566H5.38787C4.97387 10.3566 4.63787 10.0206 4.63787 9.60659C4.63787 9.19259 4.97387 8.85659 5.38787 8.85659H8.74387ZM11.7255 2.35249L11.7256 3.65949C11.7256 4.66349 12.5426 5.48149 13.5456 5.48449L14.7315 5.48349L11.7255 2.35249Z" fill="#8F95B2"/>
</svg>
