<svg width="24" height="24" viewBox="0 0 24 24" fill="none" xmlns="http://www.w3.org/2000/svg">
<path fill-rule="evenodd" clip-rule="evenodd" d="M13.9756 2.00049C14.0185 2.00049 14.0606 2.0041 14.1016 2.01105L14.2385 2.01189C14.4425 2.01189 14.6375 2.09489 14.7795 2.24189L19.8445 7.51889C19.9785 7.65789 20.0536 7.84489 20.0536 8.03789V17.2039C20.0715 19.7129 18.1175 21.7629 15.6045 21.8649L7.58546 21.8659H7.47646C5.02652 21.8105 3.06163 19.8291 3.00177 17.4031L3.00146 6.49089C3.05946 4.00989 5.10846 2.01189 7.57147 2.01189L13.8495 2.01105C13.8905 2.0041 13.9326 2.00049 13.9756 2.00049ZM13.2255 3.51149L7.57346 3.51189C5.91646 3.51189 4.54046 4.85389 4.50146 6.50889V17.2039C4.46446 18.9169 5.81446 20.3279 7.51046 20.3659H15.5745C17.2435 20.2969 18.5655 18.9099 18.5535 17.2099L18.5535 8.98349L16.5436 8.98449C14.7136 8.97949 13.2256 7.48749 13.2256 5.65949L13.2255 3.51149ZM13.7888 14.6086C14.2028 14.6086 14.5388 14.9446 14.5388 15.3586C14.5388 15.7726 14.2028 16.1086 13.7888 16.1086H8.38876C7.97476 16.1086 7.63876 15.7726 7.63876 15.3586C7.63876 14.9446 7.97476 14.6086 8.38876 14.6086H13.7888ZM11.7439 10.8566C12.1579 10.8566 12.4939 11.1926 12.4939 11.6066C12.4939 12.0206 12.1579 12.3566 11.7439 12.3566H8.38787C7.97387 12.3566 7.63787 12.0206 7.63787 11.6066C7.63787 11.1926 7.97387 10.8566 8.38787 10.8566H11.7439ZM14.7255 4.35249L14.7256 5.65949C14.7256 6.66349 15.5426 7.48149 16.5456 7.48449L17.7315 7.48349L14.7255 4.35249Z" fill="#8F95B2"/>
</svg>
