<svg width="74" height="16" viewBox="0 0 74 16" fill="none" xmlns="http://www.w3.org/2000/svg">
<path d="M6.44232 3.18642C6.72771 2.23686 8.07229 2.23686 8.35768 3.18642L8.84736 4.8157C8.97442 5.23844 9.36362 5.52786 9.80504 5.52786H11.5457C12.4955 5.52786 12.9103 6.72762 12.1634 7.31428L10.6245 8.52307C10.301 8.77715 10.1661 9.20339 10.2845 9.59732L10.8402 11.4462C11.1212 12.3814 10.0327 13.1236 9.26478 12.5204L8.01769 11.5409C7.65513 11.2561 7.14487 11.2561 6.78231 11.5409L5.53522 12.5204C4.76726 13.1236 3.67877 12.3814 3.95985 11.4462L4.51552 9.59731C4.63392 9.20339 4.49901 8.77715 4.17553 8.52307L2.63657 7.31428C1.88966 6.72762 2.3045 5.52786 3.25426 5.52786H4.99496C5.43638 5.52786 5.82558 5.23844 5.95264 4.8157L6.44232 3.18642Z" fill="#FFCE73"/>
<path d="M21.2424 3.18642C21.5278 2.23686 22.8723 2.23686 23.1577 3.18642L23.6474 4.8157C23.7745 5.23844 24.1637 5.52786 24.6051 5.52786H26.3458C27.2956 5.52786 27.7104 6.72762 26.9635 7.31428L25.4245 8.52307C25.101 8.77715 24.9661 9.20339 25.0845 9.59732L25.6402 11.4462C25.9213 12.3814 24.8328 13.1236 24.0648 12.5204L22.8177 11.5409C22.4552 11.2561 21.9449 11.2561 21.5824 11.5409L20.3353 12.5204C19.5673 13.1236 18.4788 12.3814 18.7599 11.4462L19.3156 9.59731C19.434 9.20339 19.2991 8.77715 18.9756 8.52307L17.4366 7.31428C16.6897 6.72762 17.1045 5.52786 18.0543 5.52786H19.795C20.2364 5.52786 20.6256 5.23844 20.7527 4.8157L21.2424 3.18642Z" fill="#FFCE73"/>
<path d="M36.0424 3.18642C36.3278 2.23686 37.6724 2.23686 37.9578 3.18642L38.4475 4.8157C38.5745 5.23844 38.9637 5.52786 39.4051 5.52786H41.1458C42.0956 5.52786 42.5104 6.72762 41.7635 7.31428L40.2246 8.52307C39.9011 8.77715 39.7662 9.20339 39.8846 9.59732L40.4403 11.4462C40.7213 12.3814 39.6328 13.1236 38.8649 12.5204L37.6178 11.5409C37.2552 11.2561 36.745 11.2561 36.3824 11.5409L35.1353 12.5204C34.3674 13.1236 33.2789 12.3814 33.5599 11.4462L34.1156 9.59731C34.234 9.20339 34.0991 8.77715 33.7756 8.52307L32.2367 7.31428C31.4898 6.72762 31.9046 5.52786 32.8544 5.52786H34.5951C35.0365 5.52786 35.4257 5.23844 35.5527 4.8157L36.0424 3.18642Z" fill="#FFCE73"/>
<path d="M50.8422 3.18642C51.1276 2.23686 52.4722 2.23686 52.7576 3.18642L53.2473 4.8157C53.3743 5.23844 53.7635 5.52786 54.2049 5.52786H55.9456C56.8954 5.52786 57.3102 6.72762 56.5633 7.31428L55.0244 8.52307C54.7009 8.77715 54.566 9.20339 54.6844 9.59732L55.2401 11.4462C55.5211 12.3814 54.4326 13.1236 53.6647 12.5204L52.4176 11.5409C52.055 11.2561 51.5448 11.2561 51.1822 11.5409L49.9351 12.5204C49.1672 13.1236 48.0787 12.3814 48.3597 11.4462L48.9154 9.59731C49.0338 9.20339 48.8989 8.77715 48.5754 8.52307L47.0365 7.31428C46.2896 6.72762 46.7044 5.52786 47.6542 5.52786H49.3949C49.8363 5.52786 50.2255 5.23844 50.3525 4.8157L50.8422 3.18642Z" fill="#FFCE73"/>
<path d="M65.6423 3.18642C65.9277 2.23686 67.2722 2.23686 67.5576 3.18642L68.0473 4.8157C68.1744 5.23844 68.5636 5.52786 69.005 5.52786H70.7457C71.6955 5.52786 72.1103 6.72762 71.3634 7.31428L69.8244 8.52307C69.5009 8.77715 69.366 9.20339 69.4844 9.59732L70.0401 11.4462C70.3212 12.3814 69.2327 13.1236 68.4647 12.5204L67.2176 11.5409C66.8551 11.2561 66.3448 11.2561 65.9823 11.5409L64.7352 12.5204C63.9672 13.1236 62.8787 12.3814 63.1598 11.4462L63.7155 9.59731C63.8339 9.20339 63.699 8.77715 63.3755 8.52307L61.8365 7.31428C61.0896 6.72762 61.5045 5.52786 62.4542 5.52786H64.1949C64.6363 5.52786 65.0255 5.23844 65.1526 4.8157L65.6423 3.18642Z" fill="#FFCE73"/>
</svg>
